<?xml version="1.0" encoding="UTF-8"?>
<svg width="38px" height="38px" viewBox="0 0 38 38" version="1.1" xmlns="http://www.w3.org/2000/svg" xmlns:xlink="http://www.w3.org/1999/xlink">
    <!-- Generator: Sketch 41.1 (35376) - http://www.bohemiancoding.com/sketch -->
    <title>Icon</title>
    <desc>Created with Sketch.</desc>
    <defs></defs>
    <g id="Wireframes2.0" stroke="none" stroke-width="1" fill="none" fill-rule="evenodd">
        <g id="AnotherFullviewPic" transform="translate(-18.000000, -1148.000000)" fill="#3C6FB6">
            <g id="Navbar" transform="translate(0.000000, 1136.000000)">
                <g id="Icons" transform="translate(18.000000, 12.000000)">
                    <path d="M19,0 C8.51041667,0 0,8.51041667 0,19 C0,29.4895833 8.51041667,38 19,38 C29.4895833,38 38,29.4895833 38,19 C38,8.51041667 29.4895833,0 19,0 L19,0 Z M25.7786458,12.8893229 C26.0507812,12.7161458 26.4960937,12.4934896 26.8424479,12.5924479 C27.1145833,12.6666667 27.3372396,12.765625 27.015625,12.9882813 C26.8671875,13.0872396 26.6445312,12.9882813 26.4713542,13.0377604 C26.6940104,13.0872396 27.015625,13.1861979 26.9166667,13.4088542 C27.5598958,13.7799479 26.71875,14.2252604 26.2981771,14.1757813 C26.4960937,14.2005208 25.8776042,14.5716146 25.8776042,14.546875 C25.6549479,14.6705729 25.3580729,14.6705729 25.1848958,14.8932292 C24.9869792,15.1653646 25.2591146,15.6354167 24.8880208,15.5364583 C24.7395833,15.8580729 24.1705729,15.6848958 23.9231771,16.03125 C24.1953125,16.328125 23.6510417,16.7486979 23.3789062,16.3776042 C23.1315104,16.4765625 23.2552083,16.7486979 23.0078125,16.8971354 C23.1067708,17.0455729 23.1315104,17.1940104 22.9583333,17.2929688 C23.0078125,17.2682292 23.3046875,17.515625 23.3789062,17.5403646 C23.3294271,17.6640625 23.2304687,17.7630208 23.1067708,17.7630208 C23.2304687,18.0846354 22.9583333,18.4309896 22.7356771,18.6289063 C22.4882812,18.8268229 21.9192708,19.0247396 21.8450521,19.0742188 C21.3997396,19.4947917 21.1028646,20.1132813 21.8945312,20.2864583 C21.9192708,20.2864583 21.9192708,21.1028646 21.9440104,21.1276042 C21.9934896,21.4244792 22.1171875,22.2903646 21.5976562,21.96875 C21.3502604,21.8450521 21.2018229,21.1523438 21.1276042,20.8802083 C21.0533854,20.5833333 21.0286458,20.5833333 20.8307292,20.2864583 C20.5091146,20.6575521 20.4596354,20.3854167 20.1875,20.2122396 C19.9153646,20.0638021 19.5195312,20.1132813 19.3710937,19.9648438 C19,20.2369792 18.7278646,20.1627604 18.6536458,19.7421875 C18.5546875,19.9401042 18.7526042,20.2369792 18.7278646,20.3111979 C18.6041667,20.5585938 18.3815104,20.5091146 18.1835937,20.3606771 C17.8619792,20.1132813 17.1692708,20.5338542 16.7981771,20.3606771 C16.8229167,20.3606771 16.921875,20.4596354 16.9960937,20.5091146 C16.921875,20.8059896 16.7486979,20.6328125 16.6002604,20.7317708 C16.4270833,20.8554688 16.2786458,21.1028646 16.1302083,21.2265625 C16.4518229,21.8450521 16.1054687,22.4388021 16.1302083,23.1067708 C16.1302083,23.6015625 16.4518229,24.4674479 16.921875,24.7395833 C17.1445312,24.8632813 17.8867187,24.9127604 18.109375,24.8138021 C18.4557292,24.6653646 18.40625,24.3932292 18.5299479,24.0963542 C18.6536458,23.7747396 18.8020833,23.6263021 19.1731771,23.6015625 C20.2369792,23.5520833 19.4205729,24.4179688 19.296875,24.8632813 C19.2226562,25.1848958 19.1979167,25.5559896 19.1484375,25.8528646 C19.2721354,25.9023438 19.3958333,25.8776042 19.5195312,25.8776042 C19.5195312,25.7786458 19.59375,25.6549479 19.59375,25.5807292 C19.7421875,25.828125 20.2369792,25.9023438 20.3854167,25.6054688 C20.5585937,25.9023438 20.9049479,26.125 20.9544271,26.4713542 C21.0039062,26.8177083 21.3255208,27.1888021 20.8554687,27.1888021 C20.5091146,27.1888021 20.9049479,27.8815104 20.9544271,28.0052083 C21.2265625,28.5 21.671875,28.6979167 22.1666667,28.4505208 C22.1666667,28.6484375 22.0924479,29.1927083 21.8203125,29.2421875 C21.5729167,29.2916667 21.1028646,28.7721354 21.2018229,28.5 C21.1770833,28.5989583 21.1028646,28.6731771 21.0286458,28.7226563 C20.78125,28.4257813 20.3606771,28.2773438 20.1380208,27.9804688 C20.0885417,27.90625 19.4205729,26.8919271 19.5690104,26.8424479 C19.2226562,26.9908854 18.5299479,26.7434896 18.2083333,26.5703125 C17.6888021,26.2981771 17.6145833,25.5807292 16.9713542,25.6796875 C16.5260417,25.7539063 16.4023437,25.9270833 15.8828125,25.7291667 C15.5364583,25.6054688 15.2395833,25.3580729 14.8932292,25.1848958 C14.4973958,24.9622396 13.8046875,24.7395833 13.65625,24.2447917 C13.5078125,23.8489583 13.5572917,23.3789063 13.3346354,23.0078125 C13.1861979,22.7604167 12.7408854,22.265625 12.4192708,22.265625 C12.7161458,22.265625 12.1471354,21.5234375 12.0729167,21.4492188 C11.8007812,21.1276042 10.8111979,20.2617188 11.0091146,19.7669271 C11.0585937,19.6927083 10.5143229,19.4947917 10.4153646,19.4700521 C10.5143229,19.7174479 10.5390625,19.9895833 10.6627604,20.2122396 C10.7864583,20.4596354 10.9348958,20.6822917 11.0833333,20.9296875 C11.3554687,21.375 11.7265625,21.9192708 11.6770833,22.4635417 C11.3554687,22.5625 11.4544271,22.0924479 11.3554687,21.8945313 C11.1822917,21.5729167 10.7122396,21.5729167 10.5885417,21.2265625 C10.6380208,21.2018229 10.6627604,21.2018229 10.7122396,21.1770833 C10.7369792,20.7565104 10.1184896,20.4101563 10.2174479,20.1132813 C9.87109375,19.8411458 9.87109375,19.3216146 9.62369792,18.9752604 C9.40104167,18.6536458 9.02994792,18.5052083 8.70833333,18.2825521 C8.58463542,18.2083333 7.69401042,17.0703125 8.015625,16.9960938 C7.52083333,17.1197917 7.2734375,15.9570313 7.34765625,15.6601563 C7.34765625,15.6601563 7.29817708,15.6601563 7.29817708,15.6354167 C7.39713542,15.3385417 7.22395833,13.8046875 7.61979167,13.7799479 C7.34765625,13.8046875 7.2734375,13.1367188 7.34765625,13.0130208 C7.39713542,12.9140625 7.76822917,13.2851563 7.79296875,13.3346354 C7.94140625,13.2604167 8.08984375,13.0625 8.04036458,12.8893229 C7.96614583,12.6914063 7.69401042,12.5182292 7.52083333,12.3697917 C7.44661458,12.3203125 6.45703125,11.6770833 6.43229167,11.7018229 C6.53125,11.5286458 6.50651042,11.3554688 6.35807292,11.2317708 C5.88802083,11.6028646 6.13541667,10.8854167 5.88802083,10.8111979 C5.7890625,10.7864583 5.69010417,10.7122396 5.59114583,10.6132813 C7.02604167,8.33723958 9.02994792,6.43229167 11.4049479,5.12109375 C11.5533854,5.09635417 11.7513021,5.09635417 11.9492187,5.09635417 C12.3945312,5.14583333 12.6419271,5.51692708 12.9635417,5.73958333 C13.0130208,5.61588542 12.9140625,5.41796875 12.8398437,5.29427083 C12.9140625,5.09635417 13.2109375,5.046875 13.3841146,4.99739583 C13.6067708,4.97265625 13.9283854,4.92317708 14.1263021,5.02213542 C13.9778646,4.79947917 13.8046875,4.6015625 13.6315104,4.40364583 C13.6067708,4.42838542 13.5325521,4.47786458 13.5078125,4.52734375 C13.2356771,4.3046875 12.7161458,4.6015625 12.46875,4.70052083 C12.2708333,4.79947917 12.0976562,4.92317708 11.8997396,4.99739583 C11.7760417,5.046875 11.7018229,5.046875 11.6028646,5.02213542 C12.3450521,4.62630208 13.1119792,4.27994792 13.9283854,4.0078125 C14.0768229,4.10677083 14.2252604,4.27994792 14.4479167,4.453125 C14.2994792,4.32942708 14.2994792,4.8984375 14.3489583,4.99739583 C14.6210937,5.36848958 15.2148437,5.12109375 15.5859375,5.12109375 C15.5611979,5.12109375 16.6744792,5.26953125 16.4518229,4.99739583 C16.625,5.24479167 16.625,5.61588542 16.8476562,5.83854167 C17.0703125,5.61588542 16.7486979,5.36848958 16.8971354,5.14583333 C16.9466146,5.046875 17.3919271,4.92317708 17.5403646,4.84895833 C17.7135417,4.72526042 17.4166667,4.55208333 17.3424479,4.50260417 C17.0950521,4.35416667 16.1302083,4.27994792 16.6002604,3.7109375 C16.7734375,3.51302083 17.3919271,3.61197917 17.5898437,3.73567708 C17.8619792,3.88411458 18.1588542,4.15625 17.7877604,4.40364583 C17.9609375,4.42838542 18.7773437,4.65104167 18.6536458,4.97265625 C18.7278646,4.82421875 18.8515625,4.6015625 19.0494792,4.6015625 C19.2721354,4.62630208 19.3216146,5.14583333 19.4205729,5.26953125 C19.7669271,5.88802083 20.3606771,4.65104167 20.4596354,4.70052083 C20.0143229,4.52734375 20.8554687,4.3046875 21.078125,4.37890625 C21.2513021,4.453125 21.5234375,5.046875 21.2018229,5.02213542 C21.4739583,5.26953125 21.4986979,5.81380208 21.0039062,5.7890625 C20.6575521,5.76432292 20.2617187,5.29427083 19.9401042,5.66536458 C19.7174479,5.91276042 19.6184896,6.28385417 19.3958333,6.50651042 C19.0494792,6.85286458 18.5794271,6.828125 18.1588542,6.77864583 C18.3320312,6.80338542 17.7877604,7.37239583 17.7382812,7.47135417 C17.5898437,7.64453125 17.4908854,7.84244792 17.4414062,8.04036458 C17.3919271,8.28776042 17.4414062,8.55989583 17.3177083,8.80729167 C17.7382812,8.68359375 17.9609375,9.45052083 17.7877604,9.47526042 C18.3072917,9.40104167 18.7278646,9.40104167 19.2226562,9.57421875 C19.5690104,9.69791667 20.0885417,9.84635417 20.2369792,10.2174479 C20.3359375,10.0690104 20.8059896,10.1432292 20.9544271,10.1927083 C21.2513021,10.3411458 21.2760417,10.6627604 21.3502604,10.9348958 C21.4492187,11.3059896 21.7708333,11.9244792 22.1914062,11.7265625 C22.265625,11.6770833 22.8098958,11.4296875 22.6119792,11.28125 C22.4140625,11.1080729 22.1914062,10.6627604 22.3893229,10.4153646 C22.5872396,10.1432292 23.0572917,10.0690104 23.1809896,9.72265625 C23.3789062,9.15364583 22.5872396,9.22786458 22.5872396,8.80729167 C22.5872396,8.55989583 22.9088542,8.48567708 22.8841146,8.18880208 C22.8841146,7.94140625 22.5130208,7.44661458 22.8098958,7.2734375 C23.0572917,7.125 24.2447917,7.37239583 24.4674479,7.52083333 C24.6901042,7.66927083 25.3828125,7.8671875 25.4322917,8.08984375 L25.3085937,8.08984375 C25.5065104,8.26302083 25.6796875,8.63411458 25.3333333,8.73307292 C25.5559896,8.68359375 26.1992187,8.93098958 25.7539062,9.07942708 C25.9023437,9.00520833 26.0260417,9.0546875 26.1744792,8.95572917 C26.3476562,8.85677083 26.4466146,8.68359375 26.6692708,8.80729167 C26.71875,8.83203125 26.9908854,8.28776042 27.1393229,8.3125 C27.3619792,8.33723958 27.4114583,8.65885417 27.5104167,8.80729167 C27.609375,9.02994792 27.8815104,9.10416667 27.9804687,9.32682292 C28.1536458,9.74739583 28.0794271,10.1432292 28.6484375,10.2916667 C28.8216146,10.3411458 29.2916667,10.0690104 29.2669271,10.4401042 C29.3658854,10.3411458 29.4153646,10.2669271 29.4153646,10.2421875 C29.4401042,10.5885417 29.5885417,10.984375 30.0091146,10.9348958 C30.0091146,10.9348958 30.0091146,11.4049479 29.9596354,11.4791667 C29.8111979,11.7018229 29.4401042,11.6523438 29.2174479,11.7760417 C29.1432292,11.8007813 28.5494792,12.3203125 28.6236979,12.3945313 C28.3020833,12.0234375 27.7825521,12.0234375 27.3619792,12.1223958 C26.9166667,12.1966146 26.4960937,12.2460938 26.0755208,12.4192708 C25.8776042,12.5182292 25.6796875,12.6171875 25.53125,12.7903646 C25.4570312,12.8893229 25.3333333,13.3346354 25.2096354,13.359375 C25.4570312,13.3098958 25.5807292,13.0377604 25.7786458,12.8893229 L25.7786458,12.8893229 Z M21.7460938,34.5859375 C21.7213542,34.4622396 21.6966146,34.2148438 21.6966146,34.1901042 C21.671875,33.7942708 22.0924479,33.5221354 22.0677083,33.1510417 C21.7955729,33.0768229 21.7213542,32.8046875 21.7708333,32.5078125 C21.8203125,32.0872396 22.1914063,31.7903646 22.4882813,31.5182292 C22.7851563,31.2460938 22.859375,30.6770833 22.7851563,30.3307292 C22.6614583,29.7369792 22.6614583,29.1184896 22.5625,28.5247396 C22.5872396,28.6731771 23.0078125,28.6236979 23.0820313,28.8216146 C23.1809896,28.6484375 23.2304688,28.4257813 23.3541667,28.2526042 C23.453125,28.1041667 23.6263021,28.0546875 23.7747396,27.9309896 C24.0221354,27.7825521 24.5416667,27.2135417 24.8385417,27.5598958 C25.0859375,27.8567708 24.4674479,28.1783854 24.7890625,28.4505208 C24.8880208,28.2526042 24.7890625,27.9557292 24.9869792,27.7578125 C25.3828125,27.3125 25.6549479,27.8072917 26.0507813,27.9309896 C26.4713542,28.0546875 26.6197917,28.203125 26.9414063,28.4752604 C26.8424479,28.3763021 27.3372396,28.203125 27.3867188,28.1783854 C27.8567708,28.0794271 28.0546875,28.3515625 28.3763021,28.5989583 C28.7226563,28.8463542 29.2669271,29.0195313 29.2174479,29.5143229 C29.4648438,29.5638021 29.6132813,29.6380208 29.8111979,29.7122396 C30.0091146,29.8111979 30.28125,29.7617188 30.4296875,29.9101563 C28.1536458,32.3098958 25.1354167,33.9921875 21.7460938,34.5859375 L21.7460938,34.5859375 Z" id="Icon"></path>
                </g>
            </g>
        </g>
    </g>
</svg>