<?xml version="1.0" encoding="UTF-8"?>
<svg width="43px" height="42px" viewBox="0 0 43 42" version="1.1" xmlns="http://www.w3.org/2000/svg" xmlns:xlink="http://www.w3.org/1999/xlink">
    <!-- Generator: Sketch 41.1 (35376) - http://www.bohemiancoding.com/sketch -->
    <title>ProfileIcon</title>
    <desc>Created with Sketch.</desc>
    <defs></defs>
    <g id="Wireframes2.0" stroke="none" stroke-width="1" fill="none" fill-rule="evenodd">
        <g id="AnotherFullviewPic" transform="translate(-314.000000, -1147.000000)">
            <g id="Navbar" transform="translate(0.000000, 1136.000000)">
                <g id="Icons" transform="translate(18.000000, 12.000000)">
                    <g id="ProfileIcon" transform="translate(297.000000, 0.000000)">
                        <ellipse id="Oval" stroke="#3C6FB6" stroke-width="2" cx="20.0534759" cy="20" rx="20.0534759" ry="20"></ellipse>
                        <path d="M20.0534759,20.5505871 C23.2529865,20.5505871 25.8467023,17.9637879 25.8467023,14.7728094 C25.8467023,11.5818308 23.2529865,8.99503158 20.0534759,8.99503158 C16.8539654,8.99503158 14.2602496,11.5818308 14.2602496,14.7728094 C14.2602496,17.9637879 16.8539654,20.5505871 20.0534759,20.5505871 L20.0534759,20.5505871 Z M20.0534759,17.8839205 C18.3306625,17.8839205 16.9340463,16.4910286 16.9340463,14.7728094 C16.9340463,13.0545901 18.3306625,11.6616982 20.0534759,11.6616982 C21.7762893,11.6616982 23.1729055,13.0545901 23.1729055,14.7728094 C23.1729055,16.4910286 21.7762893,17.8839205 20.0534759,17.8839205 Z M16.0352495,16.6393456 C12.7878518,18.3403022 10.6951872,21.9486979 10.6951872,25.9536675 C10.6951872,32.6887354 29.4117647,32.6887354 29.4117647,25.9536675 C29.4117647,21.9978374 27.3703119,18.4264813 24.1846816,16.699554 L22.9077805,19.0424836 C25.2154792,20.2934849 26.7379679,22.9569554 26.7379679,25.9536675 C26.7379679,29.1331798 13.368984,29.1331798 13.368984,25.9536675 C13.368984,22.9205456 14.9287877,20.2309655 17.2784757,19.0002209 L16.0352495,16.6393456 Z" id="Icon" fill="#3C6FB6"></path>
                    </g>
                </g>
            </g>
        </g>
    </g>
</svg>